<?xml version="1.0" encoding="utf-8"?>
<!-- Generator: Adobe Illustrator 16.0.0, SVG Export Plug-In . SVG Version: 6.00 Build 0)  -->
<!DOCTYPE svg PUBLIC "-//W3C//DTD SVG 1.1//EN" "http://www.w3.org/Graphics/SVG/1.1/DTD/svg11.dtd">
<svg version="1.1" xmlns="http://www.w3.org/2000/svg" xmlns:xlink="http://www.w3.org/1999/xlink" x="0px" y="0px"
	 width="109.664px" height="109.666px" viewBox="0 0 109.664 109.666" enable-background="new 0 0 109.664 109.666"
	 xml:space="preserve">
<g id="background">
</g>
<g id="objects">
	<circle fill="#FFFFFF" cx="54.832" cy="54.832" r="54.832"/>
	<g>
		<path d="M42.165,51.665v7.601h12.572c-0.507,3.262-3.801,9.563-12.572,9.563c-7.568,0-13.743-6.27-13.743-13.997
			s6.175-13.997,13.743-13.997c4.307,0,7.188,1.837,8.835,3.42l6.018-5.795c-3.863-3.61-8.867-5.795-14.853-5.795
			c-12.255,0-22.167,9.912-22.167,22.167s9.912,22.167,22.167,22.167c12.794,0,21.281-8.993,21.281-21.66
			c0-1.457-0.159-2.565-0.349-3.674H42.165L42.165,51.665z"/>
		<path d="M89.666,51.665h-6.334v-6.333h-6.333v6.333h-6.333v6.334h6.333v6.333h6.333v-6.333h6.334V51.665z"/>
	</g>
</g>
</svg>
