<?xml version="1.0" encoding="utf-8"?>
<!-- Generator: Adobe Illustrator 16.0.0, SVG Export Plug-In . SVG Version: 6.00 Build 0)  -->
<!DOCTYPE svg PUBLIC "-//W3C//DTD SVG 1.1//EN" "http://www.w3.org/Graphics/SVG/1.1/DTD/svg11.dtd">
<svg version="1.1" xmlns="http://www.w3.org/2000/svg" xmlns:xlink="http://www.w3.org/1999/xlink" x="0px" y="0px"
	 width="109.664px" height="109.666px" viewBox="0 0 109.664 109.666" enable-background="new 0 0 109.664 109.666"
	 xml:space="preserve">
<g id="background">
</g>
<g id="objects">
	<circle fill="#FFFFFF" cx="54.832" cy="54.832" r="54.832"/>
	<g>
		<path d="M77.06,27.042H32.605c-3.066,0-5.562,2.496-5.562,5.564v44.451c0,3.066,2.496,5.565,5.562,5.565H77.06
			c3.067,0,5.563-2.499,5.563-5.565V32.606C82.623,29.538,80.127,27.042,77.06,27.042L77.06,27.042z M54.832,43.718
			c6.121,0,11.114,4.992,11.114,11.113c0,6.119-4.993,11.113-11.114,11.113c-6.119,0-11.113-4.994-11.113-11.113
			C43.719,48.71,48.713,43.718,54.832,43.718L54.832,43.718z M33.989,77.058c-0.827,0-1.384-0.557-1.384-1.383V52.05h5.836
			c-0.285,0.84-0.285,1.955-0.285,2.781c0,9.176,7.504,16.678,16.676,16.678c9.173,0,16.678-7.502,16.678-16.678
			c0-0.826,0-1.941-0.285-2.781h5.835v23.625c0,0.826-0.556,1.383-1.384,1.383H33.989z M77.06,39.554
			c0,0.826-0.556,1.383-1.384,1.383h-5.564c-0.828,0-1.384-0.557-1.384-1.383v-5.564c0-0.826,0.556-1.383,1.384-1.383h5.564
			c0.828,0,1.384,0.557,1.384,1.383V39.554z M77.06,39.554"/>
	</g>
</g>
</svg>
