<?xml version="1.0" encoding="utf-8"?>
<!-- Generator: Adobe Illustrator 16.0.0, SVG Export Plug-In . SVG Version: 6.00 Build 0)  -->
<!DOCTYPE svg PUBLIC "-//W3C//DTD SVG 1.1//EN" "http://www.w3.org/Graphics/SVG/1.1/DTD/svg11.dtd">
<svg version="1.1" xmlns="http://www.w3.org/2000/svg" xmlns:xlink="http://www.w3.org/1999/xlink" x="0px" y="0px"
	 width="109.667px" height="109.664px" viewBox="0 0 109.667 109.664" enable-background="new 0 0 109.667 109.664"
	 xml:space="preserve">
<g id="background">
</g>
<g id="objects">
	<circle fill="#FFFFFF" cx="54.833" cy="54.831" r="54.833"/>
	<g>
		<path d="M88.679,33.838c-2.49,1.104-5.168,1.852-7.977,2.186c2.867-1.719,5.068-4.438,6.107-7.682
			c-2.684,1.592-5.656,2.747-8.818,3.369c-2.534-2.698-6.144-4.385-10.14-4.385c-7.668,0-13.888,6.219-13.888,13.887
			c0,1.089,0.123,2.148,0.361,3.165c-11.541-0.579-21.774-6.107-28.624-14.511c-1.195,2.051-1.881,4.438-1.881,6.982
			c0,4.816,2.453,9.068,6.178,11.559c-2.275-0.072-4.418-0.696-6.289-1.738c-0.002,0.059-0.002,0.118-0.002,0.176
			c0,6.729,4.789,12.34,11.141,13.615c-1.164,0.318-2.393,0.488-3.658,0.488c-0.896,0-1.766-0.087-2.613-0.248
			c1.768,5.516,6.895,9.53,12.974,9.643c-4.754,3.726-10.741,5.945-17.249,5.945c-1.119,0-2.227-0.065-3.311-0.194
			c6.143,3.941,13.443,6.24,21.286,6.24c25.544,0,39.514-21.159,39.514-39.513c0-0.602-0.014-1.201-0.041-1.796
			C84.464,39.069,86.817,36.624,88.679,33.838L88.679,33.838z M88.679,33.838"/>
	</g>
</g>
</svg>
