<?xml version="1.0" encoding="utf-8"?>
<!-- Generator: Adobe Illustrator 16.0.0, SVG Export Plug-In . SVG Version: 6.00 Build 0)  -->
<!DOCTYPE svg PUBLIC "-//W3C//DTD SVG 1.1//EN" "http://www.w3.org/Graphics/SVG/1.1/DTD/svg11.dtd">
<svg version="1.1" id="Calque_1" xmlns="http://www.w3.org/2000/svg" xmlns:xlink="http://www.w3.org/1999/xlink" x="0px" y="0px"
	 width="99.804px" height="94.541px" viewBox="0 0 99.804 94.541" enable-background="new 0 0 99.804 94.541" xml:space="preserve">
<g>
	<path fill="#FFFFFF" d="M76.197,14.437c0,0.415,0,0.731,0,1.048c0,3.256-0.004,6.512,0.004,9.768
		c0.002,0.381,0.025,0.775,0.124,1.14c0.216,0.802,0.965,1.335,1.778,1.332c0.817-0.002,1.551-0.538,1.771-1.343
		c0.092-0.337,0.12-0.7,0.123-1.051c0.006-4.618,0.005-9.235,0.001-13.853c0-0.254-0.035-0.508-0.057-0.801
		c-5.032,0-9.981-0.009-14.932,0.006c-1.219,0.004-1.994,0.791-1.981,1.911c0.015,1.152,0.789,1.838,2.121,1.842
		c3.097,0.007,6.19,0.002,9.285,0.002C74.985,14.437,75.537,14.437,76.197,14.437z"/>
	<path fill-rule="evenodd" clip-rule="evenodd" fill="#FFFFFF" d="M15.823,90.269c0-12.996,0-25.992,0-38.988
		c0-0.297-0.013-0.594,0.01-0.889c0.081-1.064,0.912-1.845,1.919-1.816c0.98,0.027,1.742,0.784,1.814,1.819
		c0.023,0.324,0.015,0.651,0.015,0.977c0,11.31,0,22.618,0,33.927c0,0.351,0,0.701,0,1.123c6.305,0,12.535,0,18.854,0
		c0-8.156,0-16.309,0-24.521c7.586,0,15.084,0,22.666,0c0,8.17,0,16.325,0,24.536c6.319,0,12.548,0,18.9,0c0-0.418,0-0.792,0-1.167
		c0-10.658-0.003-21.315,0-31.973c0-0.355-0.012-0.712,0.017-1.065c0.082-1,0.813-1.711,1.778-1.75
		c0.985-0.039,1.824,0.678,1.942,1.688c0.038,0.321,0.021,0.649,0.021,0.975c0.001,12.375,0.001,24.749,0.001,37.124
		c-8.787,0-17.574,0-26.361,0c-0.015-0.354-0.043-0.708-0.043-1.062c-0.002-7.49-0.002-14.979-0.002-22.469c0-0.346,0-0.69,0-1.083
		c-5.081,0-10.045,0-15.126,0c0,0.393,0,0.737,0,1.083c0,7.253,0.001,14.506-0.002,21.759c0,0.591-0.027,1.182-0.042,1.772
		C33.397,90.269,24.61,90.269,15.823,90.269z"/>
	<path fill-rule="evenodd" clip-rule="evenodd" fill="#FFFFFF" d="M4.5,47.983c0.445-0.502,0.858-1.038,1.34-1.501
		C20.213,32.663,34.592,18.85,48.969,5.036c0.253-0.242,0.509-0.481,0.807-0.764c0.29,0.262,0.551,0.489,0.801,0.729
		c14.485,13.916,28.969,27.831,43.454,41.748c0.254,0.244,0.514,0.495,0.713,0.782c0.523,0.757,0.422,1.7-0.211,2.358
		c-0.63,0.652-1.574,0.778-2.341,0.266c-0.34-0.227-0.631-0.53-0.929-0.815C77.649,36.266,64.038,23.19,50.425,10.116
		c-0.19-0.182-0.388-0.353-0.643-0.583c-0.274,0.256-0.531,0.488-0.779,0.728c-13.59,13.055-27.18,26.111-40.771,39.167
		c-0.042,0.04-0.084,0.082-0.127,0.123c-1.458,1.395-2.621,1.234-3.605-0.5C4.5,48.694,4.5,48.339,4.5,47.983z"/>
	<path fill-rule="evenodd" clip-rule="evenodd" fill="#FFFFFF" d="M42.185,90.269c0.014-0.591,0.041-1.182,0.042-1.772
		c0.003-7.253,0.002-14.506,0.002-21.759c0-0.346,0-0.69,0-1.083c5.082,0,10.045,0,15.126,0c0,0.393,0,0.737,0,1.083
		c0,7.489,0,14.979,0.002,22.469c0,0.354,0.028,0.709,0.043,1.062C52.327,90.269,47.257,90.269,42.185,90.269z"/>
	<path fill-rule="evenodd" clip-rule="evenodd" fill="#FFFFFF" d="M76.197,14.437c-0.66,0-1.212,0-1.763,0
		c-3.095,0-6.188,0.005-9.285-0.002c-1.332-0.004-2.106-0.69-2.121-1.842c-0.013-1.12,0.763-1.906,1.981-1.911
		c4.95-0.015,9.899-0.006,14.932-0.006c0.021,0.293,0.057,0.547,0.057,0.801c0.004,4.618,0.005,9.235-0.001,13.853
		c-0.003,0.351-0.031,0.714-0.123,1.051c-0.22,0.805-0.953,1.34-1.771,1.343c-0.813,0.003-1.562-0.53-1.778-1.332
		c-0.099-0.364-0.122-0.758-0.124-1.14c-0.008-3.255-0.004-6.512-0.004-9.768C76.197,15.168,76.197,14.852,76.197,14.437z"/>
</g>
</svg>
